<svg width="64" height="53" viewBox="0 0 64 53" fill="none" xmlns="http://www.w3.org/2000/svg">
<path d="M17.8447 14.4535L13.7067 11.032L13.7227 35.7458L13.7727 36.8995C13.7927 37.445 13.9177 38.0566 14.1177 38.6929L46.8927 48.2469L55.0927 45.2468L55.0997 45.2369L17.8427 14.4535H17.8447Z" fill="#00C4B3"/>
<path d="M14.1187 38.6928H14.1217C14.1187 38.6829 14.1137 38.6714 14.1077 38.6598C14.1147 38.6722 14.1147 38.6846 14.1177 38.6928H14.1187ZM55.0847 45.2467L46.8847 48.2468L14.1147 38.6928C14.7397 40.6797 16.1267 42.9128 17.6167 44.131L28.3067 52.9221L52.0947 52.9469L55.0747 45.2467H55.0847Z" fill="#22D3C5"/>
<path d="M13.8187 11.033L1.0757 26.9383C0.0176978 27.8722 0.545698 29.7995 2.2487 31.2194L9.6047 37.3484L14.2287 38.6956C14.0287 38.0608 13.9027 37.4559 13.8837 36.9021L13.8337 35.7484L13.8187 11.0346V11.033Z" fill="#0075C9"/>
<path d="M47.1627 11.351C46.3927 11.1898 45.6547 11.0882 44.9897 11.0725L43.5117 11.0278L13.7067 11.0336L55.0987 45.2377L58.7347 38.4607L47.1647 11.3526L47.1627 11.351Z" fill="#0075C9"/>
<path d="M47.1247 11.3452C47.1377 11.3493 47.1517 11.3518 47.1627 11.3534V11.3501C47.1497 11.3476 47.1377 11.3476 47.1247 11.3435V11.3452ZM53.7397 14.2527C52.2347 13.0006 49.5697 11.8559 47.1627 11.3534L58.7327 38.459L55.0927 45.236L63.9747 42.8905L63.9947 22.7644L53.7387 14.2518L53.7397 14.2527Z" fill="#00A8E1"/>
<path d="M45.5407 7.55332L38.1407 1.47054C36.4147 0.0680279 34.0827 -0.369998 32.9627 0.502748L13.7187 11.0319L43.5237 11.0261L45.0017 11.0708C45.6667 11.0873 46.4057 11.1881 47.1747 11.3493L45.5427 7.55167L45.5407 7.55332Z" fill="#00C4B3"/>
</svg>
