<svg width="43" height="64" viewBox="0 0 43 64" fill="none" xmlns="http://www.w3.org/2000/svg">
<g clip-path="url(#clip0_82_43)">
<path d="M10.75 64C16.684 64 21.5 59.2214 21.5 53.3334V42.6667H10.75C4.816 42.6667 0 47.4454 0 53.3334C0 59.2214 4.816 64 10.75 64Z" fill="#0ACF83"/>
<path d="M0 32C0 26.112 4.816 21.3333 10.75 21.3333H21.5V42.6666H10.75C4.816 42.6666 0 37.888 0 32Z" fill="#A259FF"/>
<path d="M0 10.6667C0 4.77867 4.816 0 10.75 0H21.5V21.3333H10.75C4.816 21.3333 0 16.5547 0 10.6667Z" fill="#F24E1E"/>
<path d="M21.5 0H32.25C38.184 0 43 4.77867 43 10.6667C43 16.5547 38.184 21.3333 32.25 21.3333H21.5V0Z" fill="#FF7262"/>
<path d="M43 32C43 37.888 38.184 42.6666 32.25 42.6666C26.316 42.6666 21.5 37.888 21.5 32C21.5 26.112 26.316 21.3333 32.25 21.3333C38.184 21.3333 43 26.112 43 32Z" fill="#1ABCFE"/>
</g>
<defs>
<clipPath id="clip0_82_43">
<rect width="43" height="64" fill="white"/>
</clipPath>
</defs>
</svg>
