<svg width="53" height="53" viewBox="0 0 53 53" fill="none" xmlns="http://www.w3.org/2000/svg">
<mask id="mask0_13_36" style="mask-type:luminance" maskUnits="userSpaceOnUse" x="0" y="0" width="53" height="53">
<path d="M52.53 24.4606L35.3025 38.7036L52.53 52.9467H32.844L15.6103 38.7036L32.844 24.4606H52.53ZM32.844 0.0533447L0.847351 26.4975L10.6934 34.6349L52.53 0.0533447H32.844Z" fill="white"/>
</mask>
<g mask="url(#mask0_13_36)">
<path d="M15.6165 38.7036L25.4564 46.8411L52.53 24.4606H32.844L15.6165 38.7036Z" fill="#39CEFD"/>
</g>
<mask id="mask1_13_36" style="mask-type:luminance" maskUnits="userSpaceOnUse" x="0" y="0" width="53" height="53">
<path d="M52.53 24.4606L35.3025 38.7036L52.53 52.9467H32.844L15.6103 38.7036L32.844 24.4606H52.53ZM32.844 0.0533447L0.847351 26.4975L10.6934 34.6349L52.53 0.0533447H32.844Z" fill="white"/>
</mask>
<g mask="url(#mask1_13_36)">
<path d="M32.844 0.0533447H52.53L10.6934 34.6349L0.847351 26.4975L32.844 0.0533447Z" fill="#39CEFD"/>
</g>
<mask id="mask2_13_36" style="mask-type:luminance" maskUnits="userSpaceOnUse" x="0" y="0" width="53" height="53">
<path d="M52.53 24.4606L35.3025 38.7036L52.53 52.9467H32.844L15.6103 38.7036L32.844 24.4606H52.53ZM32.844 0.0533447L0.847351 26.4975L10.6934 34.6349L52.53 0.0533447H32.844Z" fill="white"/>
</mask>
<g mask="url(#mask2_13_36)">
<path d="M25.4564 46.841L32.844 52.9416H52.53L35.3024 38.7036L25.4564 46.841Z" fill="#03569B"/>
</g>
<mask id="mask3_13_36" style="mask-type:luminance" maskUnits="userSpaceOnUse" x="0" y="0" width="53" height="53">
<path d="M52.53 24.4606L35.3025 38.7036L52.53 52.9467H32.844L15.6103 38.7036L32.844 24.4606H52.53ZM32.844 0.0533447L0.847351 26.4975L10.6934 34.6349L52.53 0.0533447H32.844Z" fill="white"/>
</mask>
<g mask="url(#mask3_13_36)">
<path d="M40.0591 42.6603L35.3024 38.7036L25.4564 46.841L40.0591 42.6603Z" fill="url(#paint0_linear_13_36)"/>
</g>
<mask id="mask4_13_36" style="mask-type:luminance" maskUnits="userSpaceOnUse" x="0" y="0" width="53" height="53">
<path d="M52.53 24.4606L35.3025 38.7036L52.53 52.9467H32.844L15.6103 38.7036L32.844 24.4606H52.53ZM32.844 0.0533447L0.847351 26.4975L10.6934 34.6349L52.53 0.0533447H32.844Z" fill="white"/>
</mask>
<g mask="url(#mask4_13_36)">
<path d="M15.6154 38.7008L25.4617 30.5631L35.3086 38.7008L25.4617 46.8385L15.6154 38.7008Z" fill="#16B9FD"/>
</g>
<path d="M52.53 24.4606L35.3025 38.7036L52.53 52.9467H32.844L15.6103 38.7036L32.844 24.4606H52.53ZM32.844 0.0533447L0.847351 26.4975L10.6934 34.6349L52.53 0.0533447H32.844Z" fill="url(#paint1_radial_13_36)"/>
<defs>
<linearGradient id="paint0_linear_13_36" x1="28.3298" y1="48.4115" x2="34.2819" y2="41.2096" gradientUnits="userSpaceOnUse">
<stop stop-color="#1A237E" stop-opacity="0.4"/>
<stop offset="1" stop-color="#1A237E" stop-opacity="0"/>
</linearGradient>
<radialGradient id="paint1_radial_13_36" cx="0" cy="0" r="1" gradientUnits="userSpaceOnUse" gradientTransform="translate(2.29929 3.6584) scale(78.2956 64.7085)">
<stop stop-color="white" stop-opacity="0.1"/>
<stop offset="1" stop-color="white" stop-opacity="0"/>
</radialGradient>
</defs>
</svg>
