<svg width="56" height="45" viewBox="0 0 56 45" fill="none" xmlns="http://www.w3.org/2000/svg">
<path d="M28.0432 0.598633C12.9409 0.598633 0.69458 10.6522 0.69458 23.0544C0.69458 32.976 8.53079 41.3934 19.3972 44.3627C20.764 44.5705 21.2658 43.8755 21.2658 43.2824C21.2658 42.7469 21.2405 40.978 21.2287 39.1016C13.6203 40.46 12.0148 36.4521 12.0148 36.4521C10.7707 33.8566 8.97824 33.1664 8.97824 33.1664C6.4969 31.7727 9.16528 31.8013 9.16528 31.8013C11.9116 31.9597 13.3576 34.1154 13.3576 34.1154C15.7968 37.5484 19.7555 36.5559 21.3161 35.9821C21.5616 34.5307 22.2703 33.5401 23.0524 32.9793C16.9779 32.4115 10.5923 30.486 10.5923 21.8816C10.5923 19.4299 11.6607 17.4267 13.4101 15.8541C13.1262 15.2885 12.1901 13.0046 13.6751 9.91146C13.6751 9.91146 15.9716 9.30793 21.1979 12.2133C23.3794 11.7157 25.719 11.4662 28.0432 11.4576C30.3674 11.4662 32.7088 11.7157 34.8944 12.2133C40.1143 9.30793 42.4077 9.91146 42.4077 9.91146C43.8963 13.0046 42.9598 15.2885 42.6758 15.8541C44.4294 17.4267 45.4905 19.4299 45.4905 21.8816C45.4905 30.5065 39.0926 32.4056 33.0027 32.9615C33.9836 33.6584 34.8577 35.0249 34.8577 37.12C34.8577 40.1246 34.826 42.5428 34.826 43.2824C34.826 43.88 35.3183 44.5802 36.7046 44.3597C47.5651 41.3871 55.3914 32.9726 55.3914 23.0544C55.3914 10.6522 43.1468 0.598633 28.0432 0.598633ZM10.9375 32.5874C10.8773 32.6989 10.6635 32.7324 10.4688 32.6558C10.2704 32.5826 10.159 32.4305 10.2233 32.3185C10.2822 32.2036 10.4964 32.1717 10.6943 32.2486C10.8931 32.3219 11.0064 32.4755 10.9375 32.5874ZM12.2828 33.573C12.1523 33.6723 11.8974 33.6262 11.7244 33.4692C11.5455 33.3127 11.512 33.1033 11.6442 33.0026C11.7787 32.9033 12.026 32.9498 12.2053 33.1063C12.3842 33.2647 12.4191 33.4726 12.2828 33.573ZM13.2057 34.834C13.0381 34.9296 12.7641 34.84 12.5947 34.6403C12.4272 34.4406 12.4272 34.2011 12.5983 34.1052C12.7682 34.0092 13.0381 34.0955 13.2097 34.2937C13.3769 34.4968 13.3769 34.7362 13.2057 34.834ZM14.7665 36.2945C14.6166 36.4302 14.2973 36.3938 14.0636 36.2086C13.8245 36.0275 13.7579 35.7705 13.9083 35.6348C14.06 35.4987 14.3811 35.537 14.6166 35.7207C14.8539 35.9014 14.9263 36.1603 14.7665 36.2945ZM16.7837 36.7875C16.7175 36.9634 16.41 37.0434 16.1003 36.9686C15.7909 36.8916 15.5885 36.6856 15.651 36.5079C15.7153 36.3309 16.0242 36.2476 16.3362 36.3275C16.6451 36.4041 16.848 36.6087 16.7837 36.7875ZM19.0793 36.9967C19.087 37.1818 18.8243 37.3354 18.4992 37.3388C18.1722 37.3447 17.9077 37.1949 17.9041 37.0126C17.9041 36.8256 18.1609 36.6735 18.4878 36.6691C18.813 36.6638 19.0793 36.8126 19.0793 36.9967ZM21.3345 36.9257C21.3735 37.1064 21.1475 37.292 20.8246 37.3414C20.5071 37.389 20.2132 37.2775 20.1729 37.0982C20.1335 36.913 20.3635 36.7275 20.6806 36.6795C21.0039 36.6334 21.2933 36.742 21.3345 36.9257Z" fill="#161614"/>
</svg>
