<svg width="30" height="34" viewBox="0 0 30 34" fill="none" xmlns="http://www.w3.org/2000/svg">
<path d="M15.0001 0.5C6.99297 0.5 0.5 8.07415 0.5 17.4177C0.5 24.8924 4.65473 31.2339 10.4161 33.4709C11.1407 33.6275 11.4068 33.1039 11.4068 32.6571C11.4068 32.2537 11.3933 30.921 11.3871 29.5074C7.35315 30.5307 6.50194 27.5113 6.50194 27.5113C5.84234 25.5558 4.89196 25.0359 4.89196 25.0359C3.57637 23.9859 4.99113 24.0074 4.99113 24.0074C6.44719 24.1268 7.21388 25.7508 7.21388 25.7508C8.50714 28.3372 10.606 27.5894 11.4334 27.1572C11.5636 26.0637 11.9394 25.3174 12.354 24.895C9.13337 24.4672 5.74773 23.0165 5.74773 16.5341C5.74773 14.6871 6.31417 13.1779 7.24173 11.9932C7.09118 11.5671 6.59486 9.84638 7.3822 7.51609C7.3822 7.51609 8.59983 7.06141 11.3708 9.25022C12.5274 8.87538 13.7678 8.6874 15.0001 8.68096C16.2324 8.6874 17.4738 8.87538 18.6326 9.25022C21.4002 7.06141 22.6161 7.51609 22.6161 7.51609C23.4054 9.84638 22.9088 11.5671 22.7583 11.9932C23.688 13.1779 24.2506 14.6871 24.2506 16.5341C24.2506 23.032 20.8585 24.4627 17.6296 24.8815C18.1497 25.4065 18.6131 26.4361 18.6131 28.0144C18.6131 30.278 18.5963 32.0999 18.5963 32.6571C18.5963 33.1073 18.8573 33.6348 19.5923 33.4687C25.3506 31.2292 29.5 24.8899 29.5 17.4177C29.5 8.07415 23.008 0.5 15.0001 0.5ZM5.93077 24.5997C5.89883 24.6837 5.7855 24.7089 5.68225 24.6512C5.57708 24.596 5.51801 24.4814 5.5521 24.3971C5.58332 24.3106 5.69689 24.2865 5.80182 24.3444C5.90724 24.3996 5.96726 24.5153 5.93077 24.5997ZM6.64401 25.3422C6.57486 25.417 6.43967 25.3823 6.34795 25.264C6.2531 25.1461 6.23533 24.9884 6.30545 24.9124C6.37676 24.8376 6.50786 24.8727 6.60295 24.9906C6.6978 25.11 6.71629 25.2666 6.64401 25.3422ZM7.13332 26.2922C7.04448 26.3642 6.89921 26.2967 6.80941 26.1463C6.72056 25.9958 6.72056 25.8154 6.81133 25.7431C6.90137 25.6709 7.04448 25.7359 7.13549 25.8852C7.22409 26.0381 7.22409 26.2186 7.13332 26.2922ZM7.96086 27.3925C7.88138 27.4948 7.7121 27.4673 7.5882 27.3278C7.46142 27.1914 7.42612 26.9978 7.50584 26.8955C7.58628 26.793 7.75652 26.8219 7.88138 26.9603C8.0072 27.0964 8.04562 27.2914 7.96086 27.3925ZM9.03036 27.764C8.99531 27.8965 8.83227 27.9567 8.66803 27.9004C8.50403 27.8424 8.3967 27.6872 8.42983 27.5533C8.46393 27.4199 8.62769 27.3572 8.79313 27.4174C8.95689 27.4751 9.06446 27.6292 9.03036 27.764ZM10.2475 27.9215C10.2516 28.061 10.1123 28.1767 9.93992 28.1793C9.76655 28.1837 9.62633 28.0708 9.6244 27.9336C9.6244 27.7927 9.76055 27.6781 9.93391 27.6747C10.1063 27.6708 10.2475 27.7828 10.2475 27.9215ZM11.4432 27.868C11.4639 28.0042 11.344 28.144 11.1728 28.1813C11.0045 28.2171 10.8487 28.1331 10.8273 27.998C10.8064 27.8585 10.9284 27.7187 11.0965 27.6826C11.2679 27.6478 11.4214 27.7296 11.4432 27.868Z" fill="#161614"/>
</svg>
