<svg width="28" height="22" viewBox="0 0 28 22" fill="none" xmlns="http://www.w3.org/2000/svg">
<path d="M1.90969 21.5032H6.3618V10.6898L0 5.91284V19.5935C0 20.6522 0.856953 21.5032 1.90969 21.5032Z" fill="#4285F4"/>
<path d="M21.6382 21.5032H26.0903C27.143 21.5032 28 20.6462 28 19.5935V5.91284L21.6382 10.6838V21.5032Z" fill="#34A853"/>
<path d="M21.6382 2.41293V10.6839L28 5.91293V3.36504C28 1.00746 25.3066 -0.342226 23.4194 1.07473L21.6382 2.41293Z" fill="#FBBC04"/>
<path d="M6.36182 10.6898V2.41284L14 8.1419L21.6382 2.41284V10.6898L14 16.4128L6.36182 10.6898Z" fill="#EA4335"/>
<path d="M0 3.37041V5.9183L6.3618 10.6892V2.41283L4.58063 1.0801C2.69336 -0.336855 0 1.01283 0 3.37041Z" fill="#C5221F"/>
</svg>
