<svg width="55" height="45" viewBox="0 0 55 45" fill="none" xmlns="http://www.w3.org/2000/svg">
<path d="M17.6114 34.4738C17.6114 34.4738 14.7771 35.4472 19.6284 35.7766C25.5056 36.1726 28.5094 36.1158 34.9861 35.3918C34.9861 35.3918 36.6889 36.0224 39.0669 36.5685C24.5479 40.2436 6.20744 36.3557 17.6114 34.4738Z" fill="#5382A1"/>
<path d="M15.8372 29.6781C15.8372 29.6781 12.6583 31.0678 17.5132 31.3644C23.7914 31.7469 28.7494 31.7782 37.3287 30.8025C37.3287 30.8025 38.5154 31.513 40.3813 31.9016C22.8269 34.9332 3.27442 32.1406 15.8372 29.6781Z" fill="#5382A1"/>
<path d="M30.7939 21.5429C34.3714 23.9754 29.8539 26.1644 29.8539 26.1644C29.8539 26.1644 38.9378 23.3949 34.766 19.9268C30.8697 16.6926 27.8817 15.0857 44.0574 9.54517C44.0574 9.54517 18.6669 13.2903 30.7939 21.5429Z" fill="#E76F00"/>
<path d="M49.9965 38.021C49.9965 38.021 52.0939 39.0416 47.6866 39.8312C39.306 41.3306 12.8057 41.7834 5.44398 39.891C2.79764 39.2111 7.76027 38.2675 9.32132 38.0695C10.9493 37.861 11.8797 37.8999 11.8797 37.8999C8.93671 36.6754 -7.14261 40.3041 3.7122 41.3433C33.3149 44.1785 57.675 40.0665 49.9965 38.021Z" fill="#5382A1"/>
<path d="M18.9743 24.7092C18.9743 24.7092 5.49458 26.6 14.2008 27.2867C17.8769 27.5774 25.205 27.5116 32.0309 27.1738C37.6094 26.8959 43.2109 26.305 43.2109 26.305C43.2109 26.305 41.2439 26.8025 39.8208 27.3764C26.1323 29.5026 -0.311242 28.5135 7.30152 26.3386C13.7396 24.5007 18.9743 24.7092 18.9743 24.7092Z" fill="#5382A1"/>
<path d="M43.1554 32.6918C57.0703 28.4214 50.6366 24.3176 46.146 24.8705C45.0453 25.0058 44.5545 25.123 44.5545 25.123C44.5545 25.123 44.9631 24.745 45.7436 24.5813C54.6275 22.7367 61.4598 30.0218 42.8757 32.9071C42.8757 32.9071 43.091 32.7935 43.1554 32.6918Z" fill="#5382A1"/>
<path d="M34.7659 0.598633C34.7659 0.598633 42.4722 5.15146 27.4568 12.1524C15.4159 17.7684 24.7111 20.9705 27.4518 24.629C20.4234 20.8838 15.2654 17.587 18.7258 14.5185C23.8047 10.0143 37.8752 7.83053 34.7659 0.598633Z" fill="#E76F00"/>
<path d="M20.3417 44.2637C33.6983 44.7686 54.2089 43.9835 54.6946 40.251C54.6946 40.251 53.7609 41.666 43.6561 42.7897C32.256 44.0567 18.1955 43.9088 9.85608 43.0967C9.85608 43.0967 11.5633 43.9312 20.3417 44.2637Z" fill="#5382A1"/>
</svg>
