<svg width="32" height="32" viewBox="0 0 32 32" fill="none" xmlns="http://www.w3.org/2000/svg">
<rect width="32" height="31.999" transform="translate(0 0.000488281)" fill="#0177B5"/>
<path d="M4.379 11.6005H9.134V26.8705H4.379V11.6005ZM6.753 4.00049C8.27 4.00049 9.503 5.23349 9.503 6.75049C9.503 8.26749 8.27 9.50349 6.754 9.50349C6.02425 9.50191 5.32483 9.21138 4.80873 8.69547C4.29263 8.17955 4.00185 7.48024 4 6.75049C4 6.3891 4.07123 6.03126 4.20962 5.69742C4.34801 5.36358 4.55084 5.06029 4.80652 4.80489C5.0622 4.54948 5.36571 4.34698 5.6997 4.20896C6.03369 4.07094 6.39161 4.0001 6.753 4.00049ZM12.103 11.6005H16.655V13.6875H16.718C17.352 12.4875 18.9 11.2215 21.218 11.2215C26.024 11.2215 26.911 14.3845 26.911 18.4955V26.8715H22.168V19.4435C22.168 17.6735 22.136 15.3935 19.702 15.3935C17.232 15.3935 16.852 17.3235 16.852 19.3135V26.8675H12.11V11.5975L12.103 11.6005Z" fill="white"/>
</svg>
